<svg width="20" height="21" viewBox="0 0 20 21" fill="none" xmlns="http://www.w3.org/2000/svg">
<path d="M19.38 3.75998C19.3458 3.63229 19.2867 3.51263 19.206 3.40792C19.1254 3.30322 19.0247 3.21555 18.91 3.14998L13.71 0.149979C13.5964 0.0834466 13.4709 0.0399777 13.3405 0.0220645C13.2101 0.0041513 13.0775 0.012146 12.9502 0.0455904C12.823 0.0790348 12.7035 0.137271 12.5988 0.216961C12.4941 0.29665 12.4061 0.396226 12.34 0.509979L9.99997 4.56998L7.65997 0.509979C7.59381 0.396226 7.50584 0.29665 7.40112 0.216961C7.2964 0.137271 7.17698 0.0790348 7.0497 0.0455904C6.92243 0.012146 6.7898 0.0041513 6.65943 0.0220645C6.52906 0.0399777 6.40351 0.0834466 6.28997 0.149979L1.08997 3.14998C0.975204 3.21555 0.874573 3.30322 0.7939 3.40792C0.713227 3.51263 0.654111 3.63229 0.619972 3.75998C0.553788 4.01343 0.589695 4.28273 0.719972 4.50998L4.71997 11.34C4.27372 12.1575 4.02701 13.069 3.99997 14C3.99759 14.9083 4.20145 15.8052 4.59619 16.6233C4.99093 17.4413 5.56623 18.159 6.27873 18.7223C6.99122 19.2857 7.82232 19.6799 8.70934 19.8753C9.59637 20.0706 10.5162 20.0621 11.3994 19.8502C12.2826 19.6384 13.1063 19.2287 13.8081 18.6523C14.51 18.0758 15.0719 17.3475 15.4513 16.5222C15.8308 15.697 16.0179 14.7964 15.9986 13.8883C15.9793 12.9802 15.7541 12.0884 15.34 11.28L19.24 4.51998C19.3126 4.40892 19.3623 4.28453 19.3864 4.15405C19.4104 4.02357 19.4082 3.88961 19.38 3.75998ZM2.99997 4.37998L6.45997 2.37998L9.67997 7.99998C8.30739 8.08478 7.00676 8.6432 5.99997 9.57998L2.99997 4.37998ZM9.99997 18C8.93911 18 7.92169 17.5786 7.17154 16.8284C6.4214 16.0783 5.99997 15.0608 5.99997 14C5.99997 12.9391 6.4214 11.9217 7.17154 11.1716C7.92169 10.4214 8.93911 9.99998 9.99997 9.99998C11.0608 9.99998 12.0783 10.4214 12.8284 11.1716C13.5785 11.9217 14 12.9391 14 14C14 15.0608 13.5785 16.0783 12.8284 16.8284C12.0783 17.5786 11.0608 18 9.99997 18ZM14 9.54998C13.457 9.05409 12.8262 8.66406 12.14 8.39998L11.16 6.56998L13.58 2.37998L17.04 4.37998L14 9.54998Z" fill="black" fill-opacity="0.7"/>
</svg>
