<svg width="9" height="9" viewBox="0 0 9 9" fill="none" xmlns="http://www.w3.org/2000/svg">
<path d="M8.69333 4.2308C8.65962 4.14385 8.60907 4.06442 8.54458 3.99705L5.00292 0.455385C4.93687 0.389341 4.85847 0.336953 4.77218 0.30121C4.68589 0.265467 4.5934 0.24707 4.5 0.24707C4.31137 0.24707 4.13046 0.322003 3.99708 0.455385C3.93104 0.521429 3.87865 0.599835 3.84291 0.686125C3.80716 0.772416 3.78877 0.864902 3.78877 0.958302C3.78877 1.14693 3.8637 1.32784 3.99708 1.46122L6.33458 3.79164H0.958333C0.770472 3.79164 0.590304 3.86626 0.457466 3.9991C0.324628 4.13194 0.25 4.31211 0.25 4.49997C0.25 4.68783 0.324628 4.868 0.457466 5.00084C0.590304 5.13367 0.770472 5.2083 0.958333 5.2083H6.33458L3.99708 7.53872C3.93069 7.60457 3.878 7.68291 3.84204 7.76923C3.80607 7.85554 3.78756 7.94813 3.78756 8.04163C3.78756 8.13514 3.80607 8.22773 3.84204 8.31404C3.878 8.40036 3.93069 8.4787 3.99708 8.54455C4.06293 8.61094 4.14127 8.66364 4.22759 8.6996C4.31391 8.73556 4.40649 8.75408 4.5 8.75408C4.59351 8.75408 4.68609 8.73556 4.77241 8.6996C4.85873 8.66364 4.93707 8.61094 5.00292 8.54455L8.54458 5.00289C8.60907 4.93552 8.65962 4.85608 8.69333 4.76914C8.76418 4.59668 8.76418 4.40325 8.69333 4.2308Z" fill="white"/>
</svg>
