<svg width="41" height="45" viewBox="0 0 41 45" fill="none" xmlns="http://www.w3.org/2000/svg">
<path fill-rule="evenodd" clip-rule="evenodd" d="M20.5 39.6231C31.0614 39.6231 39.6231 31.0614 39.6231 20.5C39.6231 9.93859 31.0614 1.37687 20.5 1.37687C9.93859 1.37687 1.37687 9.93859 1.37687 20.5C1.37687 31.0614 9.93859 39.6231 20.5 39.6231ZM20.5 41C31.8218 41 41 31.8218 41 20.5C41 9.17816 31.8218 0 20.5 0C9.17816 0 0 9.17816 0 20.5C0 31.8218 9.17816 41 20.5 41Z" fill="white"/>
<path d="M27 21H13" stroke="white" stroke-width="2" stroke-linecap="round" stroke-linejoin="round"/>
<path d="M20 28L13 21L20 14" stroke="white" stroke-width="2" stroke-linecap="round" stroke-linejoin="round"/>
</svg>
