<svg width="50" height="50" viewBox="0 0 50 50" fill="none" xmlns="http://www.w3.org/2000/svg">
<circle cx="25" cy="25" r="25" fill="#79A206"/>
<path d="M29.5 17C28.6195 16.9993 27.7554 17.2378 27 17.69C26.4523 16.4328 25.4904 15.4012 24.2745 14.7669C23.0587 14.1326 21.6623 13.9339 20.3178 14.204C18.9733 14.4741 17.7619 15.1966 16.8853 16.2511C16.0087 17.3057 15.5198 18.6288 15.5 20V24C15.5014 25.4169 16.0042 26.7875 16.9194 27.8692C17.8345 28.9509 19.1029 29.6739 20.5 29.91V33C20.5 33.2652 20.6054 33.5196 20.7929 33.7071C20.9804 33.8947 21.2348 34 21.5 34C21.7652 34 22.0196 33.8947 22.2071 33.7071C22.3946 33.5196 22.5 33.2652 22.5 33V29.91C23.5187 29.7332 24.4755 29.2996 25.28 28.65C25.637 29.223 26.1064 29.7178 26.6598 30.1045C27.2132 30.4912 27.8392 30.7618 28.5 30.9V33C28.5 33.2652 28.6054 33.5196 28.7929 33.7071C28.9804 33.8947 29.2348 34 29.5 34C29.7652 34 30.0196 33.8947 30.2071 33.7071C30.3946 33.5196 30.5 33.2652 30.5 33V30.9C31.6294 30.6695 32.6444 30.0558 33.3733 29.1629C34.1022 28.27 34.5002 27.1527 34.5 26V22C34.5 20.6739 33.9732 19.4022 33.0355 18.4645C32.0979 17.5268 30.8261 17 29.5 17ZM24.5 22V26C24.5096 26.191 24.5296 26.3812 24.56 26.57C24.0252 27.207 23.3051 27.6614 22.5 27.87V25C22.5 24.7348 22.3946 24.4804 22.2071 24.2929C22.0196 24.1054 21.7652 24 21.5 24C21.2348 24 20.9804 24.1054 20.7929 24.2929C20.6054 24.4804 20.5 24.7348 20.5 25V27.86C19.6435 27.6389 18.8845 27.1401 18.3417 26.4417C17.7989 25.7432 17.5029 24.8846 17.5 24V20C17.4974 19.2076 17.7302 18.4322 18.1689 17.7723C18.6077 17.1124 19.2325 16.5977 19.9642 16.2934C20.6959 15.9892 21.5015 15.9091 22.2788 16.0634C23.056 16.2177 23.77 16.5994 24.33 17.16C24.8714 17.7086 25.2399 18.404 25.39 19.16C24.8119 19.9944 24.5015 20.9849 24.5 22ZM32.5 26C32.4983 26.619 32.3051 27.2222 31.9471 27.7271C31.589 28.2319 31.0835 28.6137 30.5 28.82V25C30.5 24.7348 30.3946 24.4804 30.2071 24.2929C30.0196 24.1054 29.7652 24 29.5 24C29.2348 24 28.9804 24.1054 28.7929 24.2929C28.6054 24.4804 28.5 24.7348 28.5 25V28.82C27.9165 28.6137 27.411 28.2319 27.0529 27.7271C26.6949 27.2222 26.5017 26.619 26.5 26V22C26.5 21.2044 26.8161 20.4413 27.3787 19.8787C27.9413 19.3161 28.7044 19 29.5 19C30.2956 19 31.0587 19.3161 31.6213 19.8787C32.1839 20.4413 32.5 21.2044 32.5 22V26Z" fill="white"/>
</svg>
