<svg width="50" height="50" viewBox="0 0 50 50" fill="none" xmlns="http://www.w3.org/2000/svg">
<circle cx="25" cy="25" r="25" fill="#79A206"/>
<path d="M15 25.5V27.5C15 27.7652 15.1054 28.0196 15.2929 28.2071C15.4804 28.3946 15.7348 28.5 16 28.5H26C26 29.2956 26.3161 30.0587 26.8787 30.6213C27.4413 31.1839 28.2044 31.5 29 31.5C29.7956 31.5 30.5587 31.1839 31.1213 30.6213C31.6839 30.0587 32 29.2956 32 28.5H34C34.2652 28.5 34.5196 28.3946 34.7071 28.2071C34.8946 28.0196 35 27.7652 35 27.5V19.5C35 18.7044 34.6839 17.9413 34.1213 17.3787C33.5587 16.8161 32.7956 16.5 32 16.5H22C21.2044 16.5 20.4413 16.8161 19.8787 17.3787C19.3161 17.9413 19 18.7044 19 19.5V26.5H17V25.5C17 25.2348 16.8946 24.9804 16.7071 24.7929C16.5196 24.6054 16.2652 24.5 16 24.5C15.7348 24.5 15.4804 24.6054 15.2929 24.7929C15.1054 24.9804 15 25.2348 15 25.5ZM28 28.5C28 28.3022 28.0586 28.1089 28.1685 27.9444C28.2784 27.78 28.4346 27.6518 28.6173 27.5761C28.8 27.5004 29.0011 27.4806 29.1951 27.5192C29.3891 27.5578 29.5673 27.653 29.7071 27.7929C29.847 27.9327 29.9422 28.1109 29.9808 28.3049C30.0194 28.4989 29.9996 28.7 29.9239 28.8827C29.8482 29.0654 29.72 29.2216 29.5556 29.3315C29.3911 29.4414 29.1978 29.5 29 29.5C28.7348 29.5 28.4804 29.3946 28.2929 29.2071C28.1054 29.0196 28 28.7652 28 28.5ZM21 22.5H33V26.5H31.22C30.9388 26.1906 30.5961 25.9435 30.2138 25.7743C29.8315 25.6052 29.418 25.5178 29 25.5178C28.582 25.5178 28.1685 25.6052 27.7862 25.7743C27.4039 25.9435 27.0612 26.1906 26.78 26.5H21V22.5ZM21 19.5C21 19.2348 21.1054 18.9804 21.2929 18.7929C21.4804 18.6054 21.7348 18.5 22 18.5H32C32.2652 18.5 32.5196 18.6054 32.7071 18.7929C32.8946 18.9804 33 19.2348 33 19.5V20.5H21V19.5Z" fill="white"/>
</svg>
