<svg width="16" height="16" viewBox="0 0 16 16" fill="none" xmlns="http://www.w3.org/2000/svg">
<path d="M12.6666 7.65335C12.4898 7.65335 12.3202 7.72358 12.1952 7.84861C12.0702 7.97363 11.9999 8.1432 11.9999 8.32001V9.91335L10.9999 8.92668C10.6486 8.58933 10.1803 8.40094 9.69325 8.40094C9.20616 8.40094 8.73794 8.58933 8.38659 8.92668L7.91992 9.39335L6.25992 7.73335C5.91267 7.38812 5.44291 7.19434 4.95325 7.19434C4.4636 7.19434 3.99384 7.38812 3.64659 7.73335L2.66659 8.72668V4.98668C2.66659 4.80987 2.73682 4.6403 2.86185 4.51527C2.98687 4.39025 3.15644 4.32001 3.33325 4.32001H7.33325C7.51006 4.32001 7.67963 4.24977 7.80466 4.12475C7.92968 3.99973 7.99992 3.83016 7.99992 3.65335C7.99992 3.47653 7.92968 3.30697 7.80466 3.18194C7.67963 3.05692 7.51006 2.98668 7.33325 2.98668H3.33325C2.80282 2.98668 2.29411 3.19739 1.91904 3.57247C1.54397 3.94754 1.33325 4.45625 1.33325 4.98668V12.9867C1.33325 13.5171 1.54397 14.0258 1.91904 14.4009C2.29411 14.776 2.80282 14.9867 3.33325 14.9867H11.3333C11.8637 14.9867 12.3724 14.776 12.7475 14.4009C13.1225 14.0258 13.3333 13.5171 13.3333 12.9867V8.32001C13.3333 8.1432 13.263 7.97363 13.138 7.84861C13.013 7.72358 12.8434 7.65335 12.6666 7.65335ZM3.33325 13.6533C3.15644 13.6533 2.98687 13.5831 2.86185 13.4581C2.73682 13.3331 2.66659 13.1635 2.66659 12.9867V10.6133L4.58659 8.66668C4.63506 8.61668 4.69309 8.57693 4.75722 8.54978C4.82135 8.52264 4.89028 8.50865 4.95992 8.50865C5.02956 8.50865 5.09849 8.52264 5.16262 8.54978C5.22675 8.57693 5.28478 8.61668 5.33325 8.66668L7.44659 10.78L10.2866 13.62L3.33325 13.6533ZM11.9999 12.9867C11.9976 13.1151 11.9583 13.2401 11.8866 13.3467L8.85992 10.3333L9.32659 9.87335C9.42402 9.77645 9.55584 9.72207 9.69325 9.72207C9.83066 9.72207 9.96249 9.77645 10.0599 9.87335L11.9999 11.8V12.9867ZM14.4799 2.82001L12.8666 1.20668C12.7417 1.08251 12.5727 1.01282 12.3966 1.01282C12.2205 1.01282 12.0515 1.08251 11.9266 1.20668L8.87325 4.26001C8.80905 4.3212 8.75771 4.39458 8.72222 4.47585C8.68673 4.55713 8.66782 4.64467 8.66659 4.73335V6.34668C8.66659 6.52349 8.73682 6.69306 8.86185 6.81808C8.98687 6.94311 9.15644 7.01335 9.33325 7.01335H10.9466C11.1215 7.01261 11.2891 6.94317 11.4133 6.82001L14.4666 3.76668C14.53 3.70559 14.5806 3.63255 14.6156 3.55179C14.6506 3.47103 14.6692 3.38413 14.6705 3.29612C14.6717 3.20811 14.6555 3.12073 14.6228 3.03901C14.5901 2.95729 14.5415 2.88286 14.4799 2.82001ZM10.6666 5.68001H9.99992V5.01335L12.3999 2.62001L13.0666 3.28668L10.6666 5.68001Z" fill="#79A206"/>
</svg>
