<svg width="50" height="50" viewBox="0 0 50 50" fill="none" xmlns="http://www.w3.org/2000/svg">
<circle cx="25" cy="25" r="25" fill="#79A206"/>
<path d="M33 17.18V16C33 15.2044 32.6839 14.4413 32.1213 13.8787C31.5587 13.3161 30.7956 13 30 13C29.2044 13 28.4413 13.3161 27.8787 13.8787C27.3161 14.4413 27 15.2044 27 16V17.18C26.4165 17.3863 25.911 17.7681 25.5529 18.2729C25.1949 18.7778 25.0017 19.3811 25 20V22C25 22.7956 25.3161 23.5587 25.8787 24.1213C26.4413 24.6839 27.2044 25 28 25H32C32.7956 25 33.5587 24.6839 34.1213 24.1213C34.6839 23.5587 35 22.7956 35 22V20C34.9983 19.3811 34.8051 18.7778 34.4471 18.2729C34.089 17.7681 33.5835 17.3863 33 17.18ZM29 16C29 15.7348 29.1054 15.4804 29.2929 15.2929C29.4804 15.1054 29.7348 15 30 15C30.2652 15 30.5196 15.1054 30.7071 15.2929C30.8946 15.4804 31 15.7348 31 16V17H29V16ZM33 22C33 22.2652 32.8946 22.5196 32.7071 22.7071C32.5196 22.8946 32.2652 23 32 23H28C27.7348 23 27.4804 22.8946 27.2929 22.7071C27.1054 22.5196 27 22.2652 27 22V20C27 19.7348 27.1054 19.4804 27.2929 19.2929C27.4804 19.1054 27.7348 19 28 19H32C32.2652 19 32.5196 19.1054 32.7071 19.2929C32.8946 19.4804 33 19.7348 33 20V22ZM32 27C31.7348 27 31.4804 27.1054 31.2929 27.2929C31.1054 27.4804 31 27.7348 31 28V31C30.9986 31.1914 30.9354 31.3773 30.82 31.53L22.41 23.12C21.879 22.6179 21.1758 22.3381 20.445 22.3381C19.7142 22.3381 19.011 22.6179 18.48 23.12L17 24.6V19C17 18.7348 17.1054 18.4804 17.2929 18.2929C17.4804 18.1054 17.7348 18 18 18H23C23.2652 18 23.5196 17.8946 23.7071 17.7071C23.8946 17.5196 24 17.2652 24 17C24 16.7348 23.8946 16.4804 23.7071 16.2929C23.5196 16.1054 23.2652 16 23 16H18C17.2044 16 16.4413 16.3161 15.8787 16.8787C15.3161 17.4413 15 18.2044 15 19V31C15 31.7956 15.3161 32.5587 15.8787 33.1213C16.4413 33.6839 17.2044 34 18 34H30C30.7956 34 31.5587 33.6839 32.1213 33.1213C32.6839 32.5587 33 31.7956 33 31V28C33 27.7348 32.8946 27.4804 32.7071 27.2929C32.5196 27.1054 32.2652 27 32 27ZM18 32C17.7348 32 17.4804 31.8946 17.2929 31.7071C17.1054 31.5196 17 31.2652 17 31V27.43L19.9 24.53C20.0469 24.39 20.2421 24.3119 20.445 24.3119C20.6479 24.3119 20.8431 24.39 20.99 24.53L28.46 32H18Z" fill="white"/>
</svg>
