<svg width="22" height="24" viewBox="0 0 22 24" fill="none" xmlns="http://www.w3.org/2000/svg">
<path d="M21.601 2.06199C21.5559 1.89071 21.4661 1.73447 21.3409 1.60923C21.2156 1.48398 21.0594 1.39422 20.8881 1.3491C18.8368 0.816284 16.6766 0.873671 14.6564 1.51465C12.6362 2.15562 10.8381 3.35413 9.46919 4.97216L8.35426 6.29599L5.74946 5.66751C5.1162 5.44673 4.42444 5.46256 3.80194 5.71205C3.17943 5.96155 2.66823 6.42787 2.36274 7.02489L0.162548 10.9248C0.0854564 11.0614 0.0415834 11.2142 0.0344747 11.3709C0.0273661 11.5276 0.0572214 11.6838 0.121628 11.8268C0.186034 11.9698 0.283185 12.0957 0.405228 12.1942C0.527272 12.2927 0.670784 12.3612 0.824168 12.394L3.89692 13.0527C3.63663 13.845 3.45077 14.6599 3.34175 15.4868C3.32198 15.6387 3.33737 15.7931 3.38673 15.9381C3.43608 16.0831 3.51808 16.2149 3.62641 16.3232L6.72651 19.4233C6.81933 19.5162 6.92954 19.5899 7.05085 19.6401C7.17216 19.6904 7.30219 19.7163 7.43351 19.7163C7.46232 19.7163 7.49113 19.7148 7.52043 19.7124C8.36577 19.6364 9.20084 19.4722 10.012 19.2224L10.6557 22.2256C10.6886 22.3789 10.7571 22.5224 10.8556 22.6444C10.9542 22.7664 11.08 22.8635 11.223 22.9279C11.366 22.9923 11.5221 23.0221 11.6788 23.0151C11.8355 23.008 11.9883 22.9642 12.1249 22.8872L16.0302 20.6845C16.5798 20.3506 17.0092 19.8506 17.2563 19.2569C17.5034 18.6631 17.5556 18.0061 17.4052 17.3808L16.7365 14.6218L17.9735 13.4843C19.5976 12.1192 20.8007 10.321 21.4429 8.29894C22.0851 6.27686 22.1399 4.11401 21.601 2.06199ZM2.57222 10.7231L4.12837 7.96337C4.22502 7.77601 4.3897 7.63273 4.58862 7.56291C4.78754 7.49309 5.00564 7.50202 5.19819 7.58788L6.9156 8.00408L6.2656 8.77587C5.64936 9.51444 5.11637 10.3187 4.67628 11.174L2.57222 10.7231ZM15.0424 18.9453L12.3266 20.477L11.8971 18.4723C12.7677 18.0382 13.5789 17.4937 14.3105 16.8525L15.054 16.1688L15.4575 17.8334C15.5098 18.039 15.4981 18.2556 15.4239 18.4543C15.3497 18.653 15.2166 18.8243 15.0424 18.9453ZM16.6567 11.98L12.9721 15.3662C11.5137 16.6275 9.71474 17.4292 7.80171 17.6704L5.39741 15.2661C5.72033 13.3481 6.54912 11.551 7.79829 10.0601L9.47663 8.06743C9.50459 8.03818 9.53069 8.0072 9.55476 7.97467L10.9897 6.27099C12.0507 5.01788 13.4252 4.06879 14.9729 3.52063C16.5206 2.97247 18.1861 2.84487 19.7993 3.15087C20.1127 4.76908 19.9864 6.44173 19.4337 7.99459C18.881 9.54744 17.922 10.9237 16.6567 11.98ZM15.7337 5.81623C15.437 5.81623 15.147 5.9042 14.9003 6.06902C14.6537 6.23384 14.4614 6.46811 14.3479 6.7422C14.2343 7.01629 14.2046 7.31789 14.2625 7.60886C14.3204 7.89983 14.4632 8.16711 14.673 8.37688C14.8828 8.58666 15.1501 8.72953 15.4411 8.7874C15.732 8.84528 16.0336 8.81558 16.3077 8.70204C16.5818 8.58851 16.8161 8.39625 16.9809 8.14958C17.1457 7.90291 17.2337 7.6129 17.2337 7.31623C17.2337 7.11923 17.1949 6.92417 17.1195 6.74217C17.0442 6.56017 16.9337 6.39481 16.7944 6.25551C16.6551 6.11622 16.4897 6.00573 16.3077 5.93036C16.1257 5.85498 15.9306 5.81619 15.7336 5.81621L15.7337 5.81623Z" fill="black" fill-opacity="0.7"/>
</svg>
