<svg width="47" height="47" viewBox="0 0 47 47" fill="none" xmlns="http://www.w3.org/2000/svg">
<rect x="0.5" y="0.5" width="46" height="46" stroke="#DADADA"/>
<g clip-path="url(#clip0)">
<path d="M34.6024 21.0039C34.5607 20.7733 34.4394 20.5646 34.2595 20.4143C34.0797 20.264 33.8528 20.1817 33.6185 20.1816H24.2001C24.0687 20.1816 23.9387 20.2074 23.8173 20.2577C23.696 20.3079 23.5857 20.3816 23.4929 20.4744C23.4 20.5673 23.3264 20.6776 23.2761 20.7989C23.2259 20.9202 23.2 21.0503 23.2001 21.1816V25.0498C23.2 25.1811 23.2259 25.3112 23.2761 25.4325C23.3264 25.5538 23.4 25.6641 23.4929 25.757C23.5857 25.8498 23.696 25.9235 23.8173 25.9737C23.9387 26.024 24.0687 26.0498 24.2001 26.0498H28.1625C27.8801 26.5263 27.4931 26.9324 27.0306 27.2373C26.1855 27.7731 25.2005 28.0464 24.2001 28.0224C23.1625 28.0106 22.1551 27.672 21.321 27.0548C20.4869 26.4377 19.8686 25.5733 19.5538 24.5846L19.5535 24.583C19.2033 23.5564 19.2033 22.4426 19.5535 21.416L19.5538 21.4143C19.8688 20.4258 20.4872 19.5617 21.3213 18.9448C22.1554 18.3278 23.1627 17.9894 24.2001 17.9775C24.7765 17.9643 25.3498 18.0651 25.8872 18.274C26.4246 18.483 26.9153 18.7961 27.3314 19.1953C27.5203 19.3759 27.7724 19.4753 28.0338 19.4724C28.2951 19.4695 28.5449 19.3644 28.7298 19.1797L31.598 16.3115C31.693 16.2166 31.7679 16.1035 31.8182 15.979C31.8686 15.8545 31.8933 15.7211 31.8909 15.5869C31.8886 15.4526 31.8591 15.3202 31.8044 15.1975C31.7498 15.0749 31.6709 14.9645 31.5726 14.873C29.5767 13.0017 26.9358 11.9726 24.2001 12C22.16 11.9939 20.1588 12.558 18.4222 13.6285C16.6856 14.699 15.2826 16.2335 14.3714 18.0588L14.3699 18.0605C13.5975 19.5923 13.1967 21.2845 13.2001 23C13.2025 24.7148 13.603 26.4057 14.37 27.9394L14.3715 27.9412C15.2826 29.7665 16.6856 31.3009 18.4222 32.3714C20.1588 33.442 22.16 34.006 24.2001 34C26.8854 34.068 29.4951 33.1067 31.4947 31.313L31.4955 31.3125L31.4963 31.3116L31.4965 31.3115L31.4965 31.3114C32.5803 30.2687 33.4341 29.0109 34.0031 27.6188C34.572 26.2266 34.8435 24.7308 34.8002 23.2275C34.8006 22.4819 34.7344 21.7377 34.6024 21.0039ZM24.2001 14C26.0711 13.9818 27.898 14.5685 29.4086 15.6728L27.9549 17.126C26.8527 16.363 25.5405 15.9617 24.2001 15.9775C22.9763 15.9838 21.7763 16.3161 20.7236 16.9402C19.6709 17.5643 18.8035 18.4577 18.2108 19.5283L17.1415 18.6996L16.5565 18.2459C17.3613 16.9437 18.4865 15.8697 19.8247 15.1263C21.1629 14.383 22.6693 13.9952 24.2001 14ZM15.6795 25.9033C15.0402 24.0205 15.0402 21.9794 15.6795 20.0967L17.4617 21.4785C17.2339 22.4797 17.2339 23.5193 17.4617 24.5205L15.6795 25.9033ZM24.2001 32C22.6693 32.0047 21.1628 31.6169 19.8246 30.8735C18.4865 30.1302 17.3612 29.0561 16.5565 27.7539L16.9349 27.4604L18.2108 26.4707C18.8033 27.5416 19.6705 28.4353 20.7233 29.0596C21.776 29.6839 22.9762 30.0162 24.2001 30.0224C25.3457 30.0359 26.4784 29.7787 27.5058 29.2717L29.1975 30.585C27.7097 31.5436 25.9696 32.0363 24.2001 32ZM30.7259 29.2392L30.5429 29.0972L29.1656 28.028C29.8878 27.2477 30.3732 26.2782 30.5653 25.2325C30.5921 25.0881 30.5868 24.9396 30.5498 24.7975C30.5128 24.6555 30.4449 24.5233 30.3511 24.4104C30.2572 24.2975 30.1396 24.2067 30.0067 24.1444C29.8737 24.082 29.7287 24.0498 29.5819 24.0498H25.2001V22.1816H32.7489C32.7831 22.5273 32.8002 22.8769 32.8002 23.2275C32.8586 25.4164 32.1217 27.5522 30.7259 29.2392H30.7259Z" fill="#DB4437"/>
</g>
<defs>
<clipPath id="clip0">
<rect width="24" height="24" fill="white" transform="translate(12.0001 11)"/>
</clipPath>
</defs>
</svg>
