<svg width="20" height="20" viewBox="0 0 20 20" fill="none" xmlns="http://www.w3.org/2000/svg">
<path d="M14.5 2.99999C13.6195 2.9993 12.7554 3.23779 12 3.68999C11.4523 2.43278 10.4904 1.40114 9.27454 0.766849C8.05869 0.132563 6.66226 -0.0660862 5.31776 0.203982C3.97327 0.47405 2.76186 1.19654 1.88526 2.25113C1.00866 3.30573 0.519767 4.62879 0.5 5.99999V9.99999C0.501436 11.4169 1.00425 12.7875 1.91939 13.8692C2.83452 14.9509 4.10294 15.6738 5.5 15.91V19C5.5 19.2652 5.60536 19.5196 5.79289 19.7071C5.98043 19.8946 6.23478 20 6.5 20C6.76522 20 7.01957 19.8946 7.20711 19.7071C7.39464 19.5196 7.5 19.2652 7.5 19V15.91C8.51873 15.7332 9.47554 15.2995 10.28 14.65C10.637 15.223 11.1064 15.7178 11.6598 16.1045C12.2132 16.4912 12.8392 16.7618 13.5 16.9V19C13.5 19.2652 13.6054 19.5196 13.7929 19.7071C13.9804 19.8946 14.2348 20 14.5 20C14.7652 20 15.0196 19.8946 15.2071 19.7071C15.3946 19.5196 15.5 19.2652 15.5 19V16.9C16.6294 16.6695 17.6444 16.0558 18.3733 15.1629C19.1022 14.27 19.5002 13.1526 19.5 12V7.99999C19.5 6.67391 18.9732 5.40214 18.0355 4.46446C17.0979 3.52678 15.8261 2.99999 14.5 2.99999ZM9.5 7.99999V12C9.50957 12.1909 9.5296 12.3812 9.56 12.57C9.02519 13.207 8.30512 13.6614 7.5 13.87V11C7.5 10.7348 7.39464 10.4804 7.20711 10.2929C7.01957 10.1054 6.76522 9.99999 6.5 9.99999C6.23478 9.99999 5.98043 10.1054 5.79289 10.2929C5.60536 10.4804 5.5 10.7348 5.5 11V13.86C4.64353 13.6389 3.88451 13.1401 3.34169 12.4416C2.79887 11.7432 2.50287 10.8846 2.5 9.99999V5.99999C2.49739 5.20756 2.73022 4.43221 3.16894 3.77229C3.60766 3.11238 4.2325 2.59765 4.9642 2.2934C5.69591 1.98915 6.5015 1.90909 7.27877 2.06337C8.05604 2.21766 8.76998 2.59934 9.33 3.15999C9.87135 3.70863 10.2399 4.404 10.39 5.15999C9.81193 5.99437 9.50151 6.98493 9.5 7.99999ZM17.5 12C17.4983 12.6189 17.3051 13.2222 16.9471 13.7271C16.589 14.2319 16.0835 14.6137 15.5 14.82V11C15.5 10.7348 15.3946 10.4804 15.2071 10.2929C15.0196 10.1054 14.7652 9.99999 14.5 9.99999C14.2348 9.99999 13.9804 10.1054 13.7929 10.2929C13.6054 10.4804 13.5 10.7348 13.5 11V14.82C12.9165 14.6137 12.411 14.2319 12.0529 13.7271C11.6949 13.2222 11.5017 12.6189 11.5 12V7.99999C11.5 7.20435 11.8161 6.44128 12.3787 5.87867C12.9413 5.31607 13.7044 4.99999 14.5 4.99999C15.2956 4.99999 16.0587 5.31607 16.6213 5.87867C17.1839 6.44128 17.5 7.20435 17.5 7.99999V12Z" fill="#79A206"/>
</svg>
