<svg width="21" height="18" viewBox="0 0 21 18" fill="none" xmlns="http://www.w3.org/2000/svg">
<path d="M19.16 1.99998C18.1 0.93719 16.6948 0.288522 15.1984 0.171152C13.7019 0.0537822 12.2128 0.475448 11 1.35998C9.72769 0.41362 8.14402 -0.0155064 6.56795 0.15902C4.99188 0.333546 3.54047 1.09876 2.506 2.30057C1.47154 3.50237 0.930854 5.0515 0.992833 6.636C1.05481 8.22049 1.71485 9.72265 2.84003 10.84L9.05003 17.06C9.57005 17.5718 10.2704 17.8586 11 17.8586C11.7296 17.8586 12.43 17.5718 12.95 17.06L19.16 10.84C20.3276 9.66525 20.983 8.07626 20.983 6.41998C20.983 4.76371 20.3276 3.17472 19.16 1.99998ZM17.75 9.45998L11.54 15.67C11.4694 15.7413 11.3853 15.798 11.2926 15.8366C11.1999 15.8753 11.1005 15.8952 11 15.8952C10.8996 15.8952 10.8002 15.8753 10.7075 15.8366C10.6148 15.798 10.5307 15.7413 10.46 15.67L4.25003 9.42998C3.46579 8.62833 3.02664 7.55145 3.02664 6.42998C3.02664 5.30852 3.46579 4.23164 4.25003 3.42998C5.04919 2.64097 6.127 2.19855 7.25003 2.19855C8.37306 2.19855 9.45088 2.64097 10.25 3.42998C10.343 3.52371 10.4536 3.59811 10.5755 3.64887C10.6973 3.69964 10.828 3.72578 10.96 3.72578C11.092 3.72578 11.2227 3.69964 11.3446 3.64887C11.4665 3.59811 11.5771 3.52371 11.67 3.42998C12.4692 2.64097 13.547 2.19855 14.67 2.19855C15.7931 2.19855 16.8709 2.64097 17.67 3.42998C18.4651 4.22113 18.9186 5.29217 18.9336 6.41367C18.9485 7.53516 18.5237 8.61792 17.75 9.42998V9.45998Z" fill="black" fill-opacity="0.7"/>
</svg>
