<svg width="50" height="50" viewBox="0 0 50 50" fill="none" xmlns="http://www.w3.org/2000/svg">
<circle cx="25" cy="25" r="25" fill="#79A206"/>
<path d="M20 27H23C23.2652 27 23.5196 26.8946 23.7071 26.7071C23.8946 26.5196 24 26.2652 24 26C24 25.7348 23.8946 25.4804 23.7071 25.2929C23.5196 25.1054 23.2652 25 23 25H20C19.7348 25 19.4804 25.1054 19.2929 25.2929C19.1054 25.4804 19 25.7348 19 26C19 26.2652 19.1054 26.5196 19.2929 26.7071C19.4804 26.8946 19.7348 27 20 27ZM32 17H18C17.2044 17 16.4413 17.3161 15.8787 17.8787C15.3161 18.4413 15 19.2044 15 20V29C15 29.7956 15.3161 30.5587 15.8787 31.1213C16.4413 31.6839 17.2044 32 18 32H32C32.7956 32 33.5587 31.6839 34.1213 31.1213C34.6839 30.5587 35 29.7956 35 29V20C35 19.2044 34.6839 18.4413 34.1213 17.8787C33.5587 17.3161 32.7956 17 32 17ZM33 29C33 29.2652 32.8946 29.5196 32.7071 29.7071C32.5196 29.8946 32.2652 30 32 30H18C17.7348 30 17.4804 29.8946 17.2929 29.7071C17.1054 29.5196 17 29.2652 17 29V23H33V29ZM33 21H17V20C17 19.7348 17.1054 19.4804 17.2929 19.2929C17.4804 19.1054 17.7348 19 18 19H32C32.2652 19 32.5196 19.1054 32.7071 19.2929C32.8946 19.4804 33 19.7348 33 20V21Z" fill="white"/>
</svg>
